<svg width="1488" height="2042" viewBox="0 0 1488 2042" fill="none" xmlns="http://www.w3.org/2000/svg">
<g filter="url(#filter0_i_77_467)">
<path d="M75.0003 0L85.7444 556.851C87.2324 633.975 132.941 703.369 203.212 735.186L296.831 777.576C296.831 777.576 665.386 909.953 846.819 909.953C1100.81 909.953 1224.59 883.451 1323.09 997.191C1460.92 1156.35 1397.75 1623.73 1397.75 1623.73C1397.75 1623.73 1397.75 1966.44 784.388 1966.44C656.622 1966.44 561.344 1898.01 490.075 1782.75C442.37 1705.6 443.766 1640.05 454.648 1547.85C470.379 1414.56 509.142 1312.06 621.158 1255.19C707.653 1211.28 865.609 1255.19 865.609 1255.19" stroke="#E8D7C3" stroke-opacity="0.5" stroke-width="150" stroke-linecap="round"/>
</g>
<defs>
<filter id="filter0_i_77_467" x="0" y="-75.0002" width="1487.2" height="2131.44" filterUnits="userSpaceOnUse" color-interpolation-filters="sRGB">
<feFlood flood-opacity="0" result="BackgroundImageFix"/>
<feBlend mode="normal" in="SourceGraphic" in2="BackgroundImageFix" result="shape"/>
<feColorMatrix in="SourceAlpha" type="matrix" values="0 0 0 0 0 0 0 0 0 0 0 0 0 0 0 0 0 0 127 0" result="hardAlpha"/>
<feOffset dy="15"/>
<feGaussianBlur stdDeviation="7.5"/>
<feComposite in2="hardAlpha" operator="arithmetic" k2="-1" k3="1"/>
<feColorMatrix type="matrix" values="0 0 0 0 0 0 0 0 0 0 0 0 0 0 0 0 0 0 0.4 0"/>
<feBlend mode="normal" in2="shape" result="effect1_innerShadow_77_467"/>
</filter>
</defs>
</svg>
