<svg width="663" height="257" viewBox="0 0 663 257" fill="none" xmlns="http://www.w3.org/2000/svg">
<path d="M614.603 1.5C640.364 1.5002 661.248 22.3846 661.248 48.1465C661.248 73.9082 640.364 94.7918 614.603 94.792H48.1465C46.1962 94.792 44.3055 95.5424 42.9732 96.9666C40.6529 99.447 38.405 101.666 36.79 102.847C29.6602 108.061 13.3586 106.735 6.24691 105.851C4.01728 105.574 0.998034 103.605 2.87397 102.369C3.01435 102.276 3.1772 102.188 3.36523 102.106C6.51577 100.737 14.4281 100.122 16.2021 96.9189C17.7187 94.1803 17.9236 90.2452 17.6993 86.7798C17.5466 84.4205 16.3055 82.3113 14.6595 80.6142C6.51542 72.217 1.50008 60.7682 1.5 48.1465C1.5 22.3846 22.3846 1.50005 48.1465 1.5H614.603Z" fill="#E8D7C3"/>
<path d="M614.603 1.5L614.603 0H614.603V1.5ZM661.248 48.1465L662.748 48.1465V48.1465H661.248ZM614.603 94.792L614.603 96.292L614.603 96.292L614.603 94.792ZM48.1465 94.792L48.1465 96.292H48.1465V94.792ZM36.79 102.847L37.6755 104.057L37.6756 104.057L36.79 102.847ZM3.36523 102.106L2.76739 100.731L2.76728 100.731L3.36523 102.106ZM16.2021 96.9189L17.5143 97.6457L17.5144 97.6456L16.2021 96.9189ZM1.5 48.1465L0 48.1465L0 48.1465L1.5 48.1465ZM48.1465 1.5L48.1465 0L48.1465 0L48.1465 1.5ZM6.24691 105.851L6.06186 107.34L6.24691 105.851ZM2.87397 102.369L2.04845 101.116L2.87397 102.369ZM14.6595 80.6142L15.7363 79.5699L14.6595 80.6142ZM42.9732 96.9666L41.8777 95.9419L42.9732 96.9666ZM614.603 1.5L614.603 3C639.536 3.00019 659.748 23.213 659.748 48.1465H661.248H662.748C662.748 21.5562 641.193 0.000203362 614.603 0L614.603 1.5ZM661.248 48.1465L659.748 48.1465C659.748 73.0798 639.536 93.2918 614.603 93.292L614.603 94.792L614.603 96.292C641.193 96.2918 662.748 74.7366 662.748 48.1465L661.248 48.1465ZM614.603 94.792V93.292H48.1465V94.792V96.292H614.603V94.792ZM42.9732 96.9666L41.8777 95.9419C39.5545 98.4254 37.3926 100.548 35.9045 101.636L36.79 102.847L37.6756 104.057C39.4173 102.784 41.7512 100.469 44.0686 97.9913L42.9732 96.9666ZM36.79 102.847L35.9045 101.636C32.7362 103.953 27.2903 104.928 21.458 105.137C15.7162 105.343 9.95172 104.8 6.43196 104.363L6.24691 105.851L6.06186 107.34C9.65382 107.786 15.596 108.349 21.5654 108.135C27.4443 107.924 33.7141 106.955 37.6755 104.057L36.79 102.847ZM2.87397 102.369L3.69949 103.621C3.75925 103.582 3.84456 103.534 3.96319 103.482L3.36523 102.106L2.76728 100.731C2.50985 100.843 2.26945 100.97 2.04845 101.116L2.87397 102.369ZM3.36523 102.106L3.96308 103.482C4.61899 103.197 5.58642 102.928 6.81119 102.625C7.98641 102.334 9.37844 102.016 10.7038 101.645C12.0334 101.273 13.399 100.822 14.5713 100.225C15.7231 99.639 16.8596 98.8279 17.5143 97.6457L16.2021 96.9189L14.8899 96.1922C14.6576 96.6117 14.1398 97.0786 13.2107 97.5515C12.3021 98.0139 11.16 98.4024 9.89589 98.7559C8.62764 99.1106 7.33999 99.4032 6.09012 99.7127C4.88981 100.01 3.68674 100.331 2.76739 100.731L3.36523 102.106ZM16.2021 96.9189L17.5144 97.6456C19.2538 94.5046 19.4232 90.1912 19.1962 86.6829L17.6993 86.7798L16.2024 86.8767C16.4239 90.2992 16.1836 93.856 14.8899 96.1923L16.2021 96.9189ZM14.6595 80.6142L15.7363 79.5699C7.85249 71.4411 3.00008 60.3627 3 48.1465L1.5 48.1465L0 48.1465C8.44549e-05 61.1738 5.17835 72.9929 13.5828 81.6585L14.6595 80.6142ZM1.5 48.1465H3C3 23.213 23.213 3.00005 48.1465 3L48.1465 1.5L48.1465 0C21.5561 5.56762e-05 0 21.5561 0 48.1465H1.5ZM48.1465 1.5V3H614.603V1.5V0H48.1465V1.5ZM6.24691 105.851L6.43196 104.363C5.58635 104.258 4.55387 103.806 3.99421 103.328C3.69211 103.071 3.75373 103 3.77964 103.174C3.79855 103.301 3.77598 103.449 3.71077 103.571C3.65569 103.673 3.61278 103.678 3.69949 103.621L2.87397 102.369L2.04845 101.116C1.24306 101.647 0.64845 102.517 0.812435 103.617C0.946527 104.516 1.55057 105.187 2.04749 105.611C3.08588 106.496 4.67784 107.168 6.06186 107.34L6.24691 105.851ZM17.6993 86.7798L19.1962 86.6829C19.0129 83.8507 17.5341 81.4236 15.7363 79.5699L14.6595 80.6142L13.5828 81.6585C15.0769 83.1991 16.0803 84.9903 16.2024 86.8767L17.6993 86.7798ZM48.1465 94.792L48.1465 93.292C45.8183 93.292 43.5182 94.1882 41.8777 95.9419L42.9732 96.9666L44.0686 97.9913C45.0928 96.8965 46.5741 96.292 48.1465 96.292L48.1465 94.792Z" fill="#4F0E01"/>
<path d="M504.453 85.8086C504.486 85.8091 526.064 86.145 532.893 95.3184C535.763 99.1731 540.846 110.258 543.112 115.336H550.767C561.813 115.336 570.767 124.29 570.767 135.336V234.921C570.767 245.966 561.813 254.921 550.767 254.921H57.85C46.8044 254.921 37.8501 245.966 37.85 234.921V135.336C37.85 124.29 46.8043 115.336 57.85 115.336H512.673C513.74 111.848 516.031 103.223 514.534 97.627C513.51 93.8031 506.89 91.5565 504.423 89.4443C502.471 87.7732 504.434 85.827 504.453 85.8086Z" fill="#E8D7C3"/>
<path d="M504.453 85.8086L504.476 84.3088L503.846 84.2991L503.399 84.7412L504.453 85.8086ZM532.893 95.3184L534.096 94.4227L534.096 94.4226L532.893 95.3184ZM543.112 115.336L541.742 115.947L542.138 116.836H543.112V115.336ZM570.767 234.921L572.267 234.921V234.921H570.767ZM37.85 234.921L36.35 234.921L36.35 234.921L37.85 234.921ZM512.673 115.336V116.836H513.783L514.108 115.775L512.673 115.336ZM514.534 97.627L515.983 97.2392L515.983 97.2391L514.534 97.627ZM504.423 89.4443L503.448 90.5838L503.448 90.5838L504.423 89.4443ZM504.453 85.8086L504.429 87.3084C504.409 87.3081 509.71 87.3898 515.835 88.5954C518.897 89.1982 522.118 90.0732 524.965 91.334C527.826 92.601 530.197 94.2087 531.69 96.2141L532.893 95.3184L534.096 94.4226C532.174 91.8413 529.287 89.967 526.18 88.591C523.059 87.2089 519.604 86.2798 516.414 85.6519C510.034 84.3961 504.53 84.3096 504.476 84.3088L504.453 85.8086ZM532.893 95.3184L531.69 96.2141C533.029 98.0137 534.961 101.625 536.883 105.531C538.784 109.394 540.612 113.416 541.742 115.947L543.112 115.336L544.481 114.725C543.345 112.178 541.499 108.118 539.575 104.206C537.671 100.337 535.626 96.4778 534.096 94.4227L532.893 95.3184ZM543.112 115.336V116.836H550.767V115.336V113.836H543.112V115.336ZM550.767 115.336V116.836C560.984 116.836 569.267 125.119 569.267 135.336H570.767H572.267C572.267 123.462 562.641 113.836 550.767 113.836V115.336ZM570.767 135.336H569.267V234.921H570.767H572.267V135.336H570.767ZM570.767 234.921L569.267 234.921C569.267 245.138 560.984 253.421 550.767 253.421V254.921V256.421C562.641 256.421 572.267 246.795 572.267 234.921L570.767 234.921ZM550.767 254.921V253.421H57.85V254.921V256.421H550.767V254.921ZM57.85 254.921V253.421C47.6328 253.421 39.3501 245.138 39.35 234.921L37.85 234.921L36.35 234.921C36.3501 246.795 45.9759 256.421 57.85 256.421V254.921ZM37.85 234.921H39.35V135.336H37.85H36.35V234.921H37.85ZM37.85 135.336H39.35C39.35 125.119 47.6327 116.836 57.85 116.836V115.336V113.836C45.9759 113.836 36.35 123.462 36.35 135.336H37.85ZM57.85 115.336V116.836H512.673V115.336V113.836H57.85V115.336ZM512.673 115.336L514.108 115.775C514.652 113.995 515.513 110.893 516.047 107.506C516.574 104.158 516.815 100.349 515.983 97.2392L514.534 97.627L513.085 98.0147C513.75 100.501 513.594 103.802 513.083 107.038C512.579 110.234 511.761 113.189 511.239 114.897L512.673 115.336ZM514.534 97.627L515.983 97.2391C515.632 95.9286 514.828 94.8458 513.915 93.9571C513 93.0665 511.895 92.2952 510.813 91.6208C509.739 90.9511 508.595 90.3223 507.649 89.7769C506.657 89.2046 505.896 88.7306 505.399 88.3048L504.423 89.4443L503.448 90.5838C504.184 91.2141 505.175 91.813 506.15 92.3755C507.172 92.9648 508.209 93.5327 509.226 94.1666C510.236 94.7959 511.132 95.4352 511.823 96.1073C512.516 96.7814 512.924 97.4134 513.085 98.0148L514.534 97.627ZM504.423 89.4443L505.399 88.3049C505.126 88.0714 505.08 87.9135 505.068 87.8572C505.052 87.7825 505.054 87.673 505.112 87.5108C505.171 87.3441 505.271 87.1779 505.372 87.0412C505.469 86.9092 505.54 86.8429 505.506 86.876L504.453 85.8086L503.399 84.7412C503.345 84.7937 502.651 85.4789 502.286 86.5026C502.095 87.0381 501.971 87.7296 502.135 88.4905C502.304 89.2696 502.744 89.9816 503.448 90.5838L504.423 89.4443Z" fill="#4F0E01"/>
</svg>
