<svg xmlns="http://www.w3.org/2000/svg" width="666" height="260" viewBox="0 0 666 260" fill="none">
  <path d="M616.725 1.50488C643.028 1.83815 664.248 23.2649 664.248 49.6475L664.244 50.2695C663.913 76.3657 642.821 97.4584 616.725 97.7891L616.103 97.793H536.841C538.148 99.925 539.651 102.813 541.075 105.707C542.789 109.19 544.439 112.792 545.582 115.337H552.268C564.142 115.337 573.768 124.963 573.768 136.837V236.422L573.761 236.977C573.466 248.594 563.956 257.922 552.268 257.922H59.3506C47.6622 257.922 38.152 248.594 37.8575 236.977L37.8506 236.422V136.837C37.8506 124.963 47.4765 115.337 59.3506 115.337H513.052C513.55 113.596 514.173 111.148 514.584 108.539C515.094 105.303 515.25 102.002 514.585 99.5156C514.439 98.9692 514.087 98.3986 513.504 97.793H49.6465C48.0742 97.793 46.5925 98.3974 45.5684 99.4922C43.2512 101.969 40.9174 104.285 39.1758 105.559C35.2144 108.456 28.9441 109.425 23.0655 109.636C17.0962 109.85 11.1535 109.287 7.56155 108.841C6.17788 108.669 4.58615 107.998 3.54788 107.112C3.05104 106.689 2.44675 106.016 2.31253 105.117C2.14874 104.018 2.74376 103.148 3.54886 102.617C3.76968 102.472 4.01042 102.343 4.26761 102.231C5.18676 101.832 6.3899 101.511 7.58987 101.214C8.83951 100.904 10.1275 100.611 11.3955 100.257C12.6595 99.9034 13.8024 99.515 14.711 99.0527C15.6395 98.5802 16.1572 98.1126 16.3897 97.6934C17.6833 95.3572 17.9236 91.8002 17.7022 88.3779C17.5801 86.4916 16.5771 84.6998 15.083 83.1592C6.80996 74.629 1.66286 63.0429 1.50394 50.2568L1.50003 49.6475C1.50003 23.0572 23.0563 1.5002 49.6465 1.5H616.103L616.725 1.50488Z" fill="#E8D7C3"/>
  <path d="M616.725 1.50488L616.744 0.00498577L616.736 0.00492902L616.725 1.50488ZM664.248 49.6475L665.748 49.6569V49.6475H664.248ZM664.244 50.2695L665.744 50.2885L665.744 50.279L664.244 50.2695ZM616.725 97.7891L616.734 99.2891L616.744 99.2889L616.725 97.7891ZM616.103 97.793V99.293L616.112 99.2929L616.103 97.793ZM536.841 97.793V96.293H534.162L535.562 98.5771L536.841 97.793ZM541.075 105.707L542.421 105.045L542.421 105.045L541.075 105.707ZM545.582 115.337L544.214 115.952L544.612 116.837H545.582V115.337ZM552.268 115.337L552.268 113.837H552.268V115.337ZM573.768 236.422L575.267 236.44L575.268 236.431V236.422H573.768ZM573.761 236.977L575.26 237.015L575.261 237.005L575.261 236.995L573.761 236.977ZM552.268 257.922L552.268 259.422L552.268 259.422L552.268 257.922ZM37.8575 236.977L36.3576 236.995L36.3577 237.005L36.3579 237.015L37.8575 236.977ZM37.8506 236.422H36.3506V236.431L36.3507 236.44L37.8506 236.422ZM513.052 115.337V116.837H514.183L514.494 115.75L513.052 115.337ZM514.584 108.539L516.066 108.773L516.066 108.773L514.584 108.539ZM514.585 99.5156L516.034 99.1279L516.034 99.1277L514.585 99.5156ZM513.504 97.793L514.585 96.7531L514.142 96.293H513.504V97.793ZM49.6465 97.793L49.6465 96.293L49.6465 96.293L49.6465 97.793ZM45.5684 99.4922L46.6638 100.517L46.6638 100.517L45.5684 99.4922ZM39.1758 105.559L40.0613 106.769L40.0613 106.769L39.1758 105.559ZM23.0655 109.636L23.1192 111.135L23.1192 111.135L23.0655 109.636ZM7.56155 108.841L7.37638 110.329L7.3765 110.329L7.56155 108.841ZM3.54788 107.112L2.57452 108.254L2.57466 108.254L3.54788 107.112ZM2.31253 105.117L0.828899 105.338L0.828967 105.339L2.31253 105.117ZM3.54886 102.617L2.72342 101.365L2.72316 101.365L3.54886 102.617ZM4.26761 102.231L3.66981 100.856L3.66954 100.856L4.26761 102.231ZM7.58987 101.214L7.22934 99.7578L7.22933 99.7578L7.58987 101.214ZM11.3955 100.257L11.7995 101.701L11.7995 101.701L11.3955 100.257ZM14.711 99.0527L15.3912 100.39L15.3913 100.39L14.711 99.0527ZM16.3897 97.6934L17.7015 98.4208L17.7019 98.42L16.3897 97.6934ZM17.7022 88.3779L19.199 88.2811L19.199 88.2811L17.7022 88.3779ZM15.083 83.1592L16.1598 82.1149L16.1598 82.1149L15.083 83.1592ZM1.50394 50.2568L0.00394042 50.2665L0.00405263 50.2755L1.50394 50.2568ZM1.50003 49.6475L-3.00646e-07 49.6475L6.13352e-05 49.6571L1.50003 49.6475ZM49.6465 1.5L49.6465 0L49.6465 0L49.6465 1.5ZM616.103 1.5L616.114 0H616.103V1.5ZM616.725 1.50488L616.706 3.00476C642.189 3.32764 662.748 24.0869 662.748 49.6475H664.248H665.748C665.748 22.4429 643.867 0.348655 616.744 0.00500319L616.725 1.50488ZM664.248 49.6475L662.748 49.638L662.744 50.2601L664.244 50.2695L665.744 50.279L665.748 49.6569L664.248 49.6475ZM664.244 50.2695L662.744 50.2505C662.424 75.5331 641.988 95.9689 616.706 96.2892L616.725 97.7891L616.744 99.2889C643.653 98.948 665.403 77.1982 665.744 50.2885L664.244 50.2695ZM616.725 97.7891L616.715 96.2891L616.093 96.293L616.103 97.793L616.112 99.2929L616.734 99.289L616.725 97.7891ZM616.103 97.793V96.293H536.841V97.793V99.293H616.103V97.793ZM536.841 97.793L535.562 98.5771C536.832 100.648 538.31 103.485 539.729 106.369L541.075 105.707L542.421 105.045C540.993 102.141 539.465 99.2024 538.12 97.0089L536.841 97.793ZM541.075 105.707L539.729 106.369C541.432 109.83 543.074 113.414 544.214 115.952L545.582 115.337L546.95 114.722C545.804 112.17 544.146 108.55 542.421 105.045L541.075 105.707ZM545.582 115.337V116.837H552.268V115.337V113.837H545.582V115.337ZM552.268 115.337L552.268 116.837C563.313 116.837 572.268 125.791 572.268 136.837H573.768H575.268C575.268 124.134 564.97 113.837 552.268 113.837L552.268 115.337ZM573.768 136.837H572.268V236.422H573.768H575.268V136.837H573.768ZM573.768 236.422L572.268 236.403L572.261 236.958L573.761 236.977L575.261 236.995L575.267 236.44L573.768 236.422ZM573.761 236.977L572.261 236.939C571.987 247.745 563.14 256.422 552.268 256.422L552.268 257.922L552.268 259.422C564.772 259.422 574.945 249.443 575.26 237.015L573.761 236.977ZM552.268 257.922V256.422H59.3506V257.922V259.422H552.268V257.922ZM59.3506 257.922V256.422C48.4779 256.422 39.631 247.745 39.357 236.939L37.8575 236.977L36.3579 237.015C36.6731 249.443 46.8464 259.422 59.3506 259.422V257.922ZM37.8575 236.977L39.3573 236.958L39.3505 236.403L37.8506 236.422L36.3507 236.44L36.3576 236.995L37.8575 236.977ZM37.8506 236.422H39.3506V136.837H37.8506H36.3506V236.422H37.8506ZM37.8506 136.837H39.3506C39.3506 125.791 48.3049 116.837 59.3506 116.837V115.337V113.837C46.6481 113.837 36.3506 124.134 36.3506 136.837H37.8506ZM59.3506 115.337V116.837H513.052V115.337V113.837H59.3506V115.337ZM513.052 115.337L514.494 115.75C515.002 113.974 515.642 111.463 516.066 108.773L514.584 108.539L513.102 108.305C512.704 110.834 512.098 113.219 511.61 114.924L513.052 115.337ZM514.584 108.539L516.066 108.773C516.585 105.481 516.783 101.926 516.034 99.1279L514.585 99.5156L513.136 99.9033C513.718 102.078 513.604 105.124 513.102 108.305L514.584 108.539ZM514.585 99.5156L516.034 99.1277C515.8 98.2548 515.274 97.469 514.585 96.7531L513.504 97.793L512.423 98.8329C512.899 99.3282 513.077 99.6836 513.136 99.9035L514.585 99.5156ZM513.504 97.793V96.293H49.6465V97.793V99.293H513.504V97.793ZM49.6465 97.793L49.6465 96.293C47.6959 96.2931 45.8049 97.0436 44.473 98.4675L45.5684 99.4922L46.6638 100.517C47.3801 99.7512 48.4526 99.293 49.6466 99.293L49.6465 97.793ZM45.5684 99.4922L44.473 98.4675C42.1529 100.948 39.9051 103.167 38.2903 104.348L39.1758 105.559L40.0613 106.769C41.9298 105.403 44.3495 102.991 46.6638 100.517L45.5684 99.4922ZM39.1758 105.559L38.2904 104.348C34.7252 106.955 28.8665 107.927 23.0117 108.137L23.0655 109.636L23.1192 111.135C29.0218 110.923 35.7035 109.956 40.0613 106.769L39.1758 105.559ZM23.0655 109.636L23.0118 108.137C17.1562 108.346 11.3023 107.794 7.7466 107.352L7.56155 108.841L7.3765 110.329C11.0046 110.78 17.0362 111.353 23.1192 111.135L23.0655 109.636ZM7.56155 108.841L7.74673 107.352C6.63208 107.214 5.32001 106.652 4.5211 105.971L3.54788 107.112L2.57466 108.254C3.85228 109.343 5.72368 110.124 7.37638 110.329L7.56155 108.841ZM3.54788 107.112L4.52124 105.971C4.1214 105.63 3.85019 105.258 3.79609 104.896L2.31253 105.117L0.828967 105.339C1.04331 106.775 1.98067 107.747 2.57452 108.254L3.54788 107.112ZM2.31253 105.117L3.79616 104.896C3.76482 104.686 3.80336 104.521 3.88529 104.37C3.97573 104.204 4.13768 104.026 4.37456 103.869L3.54886 102.617L2.72316 101.365C1.59421 102.109 0.553602 103.49 0.828899 105.338L2.31253 105.117ZM3.54886 102.617L4.37429 103.87C4.51566 103.776 4.67917 103.688 4.86568 103.607L4.26761 102.231L3.66954 100.856C3.34167 100.998 3.0237 101.167 2.72342 101.365L3.54886 102.617ZM4.26761 102.231L4.86541 103.607C5.65306 103.265 6.73876 102.97 7.95042 102.67L7.58987 101.214L7.22933 99.7578C6.04104 100.052 4.72047 100.399 3.66981 100.856L4.26761 102.231ZM7.58987 101.214L7.95041 102.67C9.16264 102.37 10.5029 102.064 11.7995 101.701L11.3955 100.257L10.9916 98.8123C9.75212 99.1588 8.51638 99.4391 7.22934 99.7578L7.58987 101.214ZM11.3955 100.257L11.7995 101.701C13.0954 101.339 14.3505 100.919 15.3912 100.39L14.711 99.0527L14.0307 97.7159C13.2544 98.1109 12.2235 98.4678 10.9916 98.8123L11.3955 100.257ZM14.711 99.0527L15.3913 100.39C16.4324 99.8597 17.2582 99.2202 17.7015 98.4208L16.3897 97.6934L15.0779 96.9659C15.0562 97.005 14.8466 97.3006 14.0306 97.7159L14.711 99.0527ZM16.3897 97.6934L17.7019 98.42C19.2186 95.6812 19.4232 91.7454 19.199 88.2811L17.7022 88.3779L16.2053 88.4748C16.424 91.855 16.1481 95.0333 15.0774 96.9667L16.3897 97.6934ZM17.7022 88.3779L19.199 88.2811C19.0464 85.9227 17.8067 83.8129 16.1598 82.1149L15.083 83.1592L14.0063 84.2035C15.3476 85.5866 16.1138 87.0605 16.2053 88.4748L17.7022 88.3779ZM15.083 83.1592L16.1598 82.1149C8.14286 73.8488 3.15779 62.6256 3.00382 50.2382L1.50394 50.2568L0.00405263 50.2755C0.167934 63.4602 5.47706 75.4092 14.0063 84.2035L15.083 83.1592ZM1.50394 50.2568L3.00391 50.2472L3 49.6378L1.50003 49.6475L6.13352e-05 49.6571L0.00396759 50.2665L1.50394 50.2568ZM1.50003 49.6475H3.00003C3.00003 23.8856 23.8848 3.0002 49.6465 3L49.6465 1.5L49.6465 0C22.2278 0.000210492 3.05176e-05 22.2288 3.05176e-05 49.6475H1.50003ZM49.6465 1.5V3H616.103V1.5V0H49.6465V1.5ZM616.103 1.5L616.091 2.99995L616.713 3.00484L616.725 1.50488L616.736 0.00492902L616.114 4.62064e-05L616.103 1.5Z" fill="#4F0E01"/>
</svg>