<svg xmlns="http://www.w3.org/2000/svg" width="693" height="662" viewBox="0 0 693 662" fill="none">
  <g filter="url(#filter0_i_144_572)">
    <path d="M191.934 576.697L100.17 597.089C97.1075 597.77 94.5998 599.958 93.5106 602.9C92.9193 604.497 92.781 606.226 93.1109 607.897L93.3816 609.268C94.5132 614.999 99.04 619.451 104.789 620.488L187.338 635.374C198.671 637.418 209.566 641.404 219.543 647.156L221.642 648.367C236.833 657.126 254.059 661.736 271.594 661.736L289.183 661.736C303.378 661.736 317.334 658.077 329.704 651.111L341.308 644.577C348.378 640.595 354.066 634.554 357.616 627.258C364.162 613.802 362.633 597.816 353.655 585.845L353.003 584.976C348.926 579.539 343.581 575.182 337.435 572.282L326.597 567.17C308.916 558.83 288.999 556.475 269.86 560.463L191.934 576.697Z" fill="#C52000"/>
    <path d="M118.74 565.498C118.393 565.547 118.219 565.572 118.047 565.596C105.531 567.333 92.7985 566.682 80.5247 563.678C80.3557 563.637 80.1856 563.594 79.8452 563.51C76.5628 562.694 74.9216 562.287 73.9188 562.015C-7.57268 539.961 -26.7538 433.085 41.9825 384.069C42.8283 383.466 44.2253 382.513 47.0194 380.607L86.7286 353.516C95.8243 347.311 100.372 344.208 104.377 340.81C122.076 325.792 134 305.084 138.103 282.237C139.031 277.068 139.431 271.577 140.232 260.595L146.149 179.403C146.298 177.354 146.373 176.33 146.437 175.595C152.818 102.848 232.491 61.2528 295.829 97.6009C296.468 97.9678 297.351 98.492 299.117 99.5404C299.71 99.892 300.006 100.068 300.289 100.233C326.396 115.501 358.01 118.133 386.282 107.393C386.589 107.276 386.91 107.152 387.552 106.903L555.366 41.8916C621.677 16.2023 679.559 94.3649 635.646 150.3C613.837 178.081 616.161 217.762 641.064 242.806L660.956 262.811C662.917 264.784 663.898 265.77 664.566 266.469C716.674 320.941 692.067 411.29 619.534 431.815C618.603 432.079 617.258 432.432 614.567 433.137L607.847 434.899C605.495 435.516 604.318 435.824 603.193 436.148C578.721 443.181 557.855 459.283 544.847 481.172C544.249 482.179 543.653 483.239 542.459 485.358L501.484 558.14C472.818 609.059 402.032 615.477 364.676 570.545C346.171 548.287 317.448 537.215 288.791 541.294L118.74 565.498Z" fill="#A01A00"/>
    <path d="M312.898 87.0564L298.493 73.4095C296.417 71.4435 293.85 70.0735 291.062 69.4439C276.99 66.2662 274.087 47.4946 286.543 40.2154L345.361 5.84099C354.77 0.34202 365.925 -1.35567 376.544 1.09494L424.819 12.2353C440.389 15.8285 451.418 29.693 451.418 45.6724C451.418 60.443 441.967 73.5564 427.954 78.2272L366.075 98.8536C355.723 102.304 344.557 102.473 334.105 99.3379C326.173 96.9582 318.91 92.7518 312.898 87.0564Z" fill="#C52000"/>
  </g>
  <defs>
    <filter id="filter0_i_144_572" x="0" y="0" width="692.363" height="676.736" filterUnits="userSpaceOnUse" color-interpolation-filters="sRGB">
      <feFlood flood-opacity="0" result="BackgroundImageFix"/>
      <feBlend mode="normal" in="SourceGraphic" in2="BackgroundImageFix" result="shape"/>
      <feColorMatrix in="SourceAlpha" type="matrix" values="0 0 0 0 0 0 0 0 0 0 0 0 0 0 0 0 0 0 127 0" result="hardAlpha"/>
      <feOffset dy="20"/>
      <feGaussianBlur stdDeviation="7.5"/>
      <feComposite in2="hardAlpha" operator="arithmetic" k2="-1" k3="1"/>
      <feColorMatrix type="matrix" values="0 0 0 0 0 0 0 0 0 0 0 0 0 0 0 0 0 0 0.4 0"/>
      <feBlend mode="normal" in2="shape" result="effect1_innerShadow_144_572"/>
    </filter>
  </defs>
</svg>