<svg xmlns="http://www.w3.org/2000/svg" width="284" height="276" viewBox="0 0 284 276" fill="none">
  <g filter="url(#filter0_i_145_602)">
    <path d="M239.655 270.099C240.978 270.465 242.325 270.67 243.668 270.719L243.575 273.218L243.483 275.716C241.755 275.652 240.023 275.388 238.323 274.918L233.927 273.704L234.593 271.294L235.259 268.885L239.655 270.099ZM261.51 267.744C260.516 268.919 259.385 270.011 258.121 270.994C256.728 272.077 255.228 272.981 253.656 273.7L252.618 271.425L251.579 269.151C252.801 268.593 253.968 267.89 255.051 267.047C256.04 266.278 256.921 265.427 257.692 264.515L261.51 267.744ZM226.468 266.455L225.802 268.866L225.136 271.275L216.345 268.846L217.011 266.436L217.676 264.027L226.468 266.455ZM208.885 261.597L208.219 264.007L207.553 266.416L198.762 263.988L199.428 261.578L200.094 259.168L208.885 261.597ZM191.302 256.739L190.637 259.149L189.971 261.558L181.179 259.129L181.845 256.719L182.511 254.31L191.302 256.739ZM266.598 250.184C267.022 253.299 266.79 256.477 265.919 259.498L263.516 258.806L261.115 258.114C261.793 255.761 261.973 253.284 261.643 250.858L266.598 250.184ZM164.901 249.376C166.368 249.827 167.844 250.257 169.325 250.666L173.72 251.88L173.054 254.29L172.388 256.7L167.993 255.486C166.466 255.064 164.946 254.62 163.434 254.156L164.901 249.376ZM147.628 242.983C150.442 244.21 153.292 245.358 156.173 246.424L155.306 248.769L154.438 251.113C151.468 250.013 148.53 248.83 145.63 247.566L146.629 245.275L147.628 242.983ZM260.551 237.68C261.659 238.836 262.619 240.08 263.432 241.387L261.309 242.707L259.186 244.027C258.555 243.012 257.808 242.044 256.941 241.139L252.655 236.667L254.461 234.937L256.265 233.207L260.551 237.68ZM131.185 234.679C133.845 236.217 136.548 237.68 139.289 239.064L137.035 243.527C134.21 242.1 131.424 240.593 128.682 239.007L129.934 236.843L131.185 234.679ZM119.528 227.26C120.788 228.139 122.06 229.001 123.343 229.843L120.599 234.023C119.277 233.155 117.965 232.268 116.667 231.362L112.513 228.463L113.944 226.413L115.375 224.363L119.528 227.26ZM239.873 219.716C240.869 218.761 242.452 218.795 243.408 219.791L247.694 224.263L245.888 225.994L244.084 227.723L239.797 223.25C238.843 222.254 238.876 220.671 239.873 219.716ZM107.067 218.567L105.636 220.618L104.206 222.667L95.899 216.871L97.3297 214.822L98.7594 212.771L107.067 218.567ZM90.4528 206.976L89.0221 209.026L87.5914 211.077L79.2848 205.281L80.7155 203.23L82.1451 201.18L90.4528 206.976ZM73.8385 195.384L72.4078 197.435L70.9772 199.485L62.6705 193.689L64.1002 191.639L65.5309 189.588L73.8385 195.384ZM49.4274 178.23C50.6189 179.144 51.8336 180.032 53.0699 180.895L57.2242 183.792L55.7936 185.843L54.3629 187.893L50.2096 184.995C48.9116 184.09 47.6363 183.157 46.3854 182.198L47.9069 180.213L49.4274 178.23ZM36.1666 166.013C38.1834 168.239 40.3043 170.377 42.5221 172.42L40.8278 174.259L39.1344 176.098C36.8057 173.953 34.579 171.708 32.4615 169.37L36.1666 166.013ZM25.3131 151.616C26.9011 154.172 28.604 156.656 30.4156 159.059L28.4186 160.564L26.4225 162.07C24.5204 159.547 22.7333 156.938 21.066 154.254L23.1891 152.935L25.3131 151.616ZM17.2174 135.505C18.3231 138.311 19.5534 141.06 20.902 143.744L18.6676 144.866L16.4342 145.988C15.0183 143.17 13.727 140.284 12.566 137.338L14.8912 136.422L17.2174 135.505ZM13.1188 122.61C13.4774 124.074 13.8681 125.528 14.2906 126.969L11.8912 127.672L9.4928 128.375C9.04917 126.862 8.63882 125.337 8.26233 123.799L6.77795 117.742L9.20667 117.147L11.6344 116.552L13.1188 122.61ZM6.15686 93.5052C6.44411 95.128 6.78638 96.7529 7.1842 98.3773L8.6676 104.435L6.23889 105.03L3.81116 105.624L2.32776 99.5668C1.90413 97.8369 1.53916 96.1058 1.23303 94.3763L6.15686 93.5052ZM220.324 18.6566C221.675 17.8337 223.065 17.7471 224.495 18.3969L242.504 26.5834C243.837 27.1898 244.966 28.0911 245.888 29.2865C246.811 30.482 247.394 31.8248 247.636 33.3148L249.416 44.3851C258.468 48.5003 265.877 53.6077 271.641 59.7064C277.406 65.8051 281.44 72.77 283.744 80.601C283.882 81.1814 283.935 81.7945 283.9 82.4398C283.865 83.0851 283.718 83.6934 283.458 84.265C283.198 84.8367 282.836 85.3478 282.373 85.7982C281.909 86.2486 281.414 86.6128 280.885 86.89C273.47 90.3027 265.57 91.842 257.184 91.5082C248.799 91.1743 240.08 88.9495 231.028 84.8344L221.516 90.7728C220.234 91.5697 218.856 92.0065 217.383 92.0844C215.911 92.1622 214.507 91.8988 213.173 91.2924L195.165 83.1049C193.735 82.4551 192.869 81.3572 192.566 79.8109C192.263 78.2646 192.7 76.9544 193.879 75.8802L206.366 63.9652L217.477 39.5248L218.245 22.2816C218.279 20.6877 218.972 19.4795 220.324 18.6566ZM2.80823 73.4672L5.29846 73.6908C5.00493 76.9662 4.92551 80.284 5.07092 83.6263L2.57288 83.7347L0.0758057 83.8441C-0.0793012 80.2789 0.00483692 76.7389 0.317993 73.2445L2.80823 73.4672ZM204.767 77.726L216.773 83.184L222.166 79.8578C220.243 78.5237 218.441 77.1441 216.76 75.7191C215.08 74.2941 213.391 72.7928 211.693 71.2162L204.767 77.726ZM216.397 63.5238C218.597 66.0187 221.465 68.5012 224.999 70.9701C228.533 73.4391 232.301 75.5834 236.303 77.4027C242.497 80.2183 248.839 81.951 255.327 82.601C261.815 83.2509 267.511 82.7353 272.414 81.0551C272.691 80.9511 272.948 80.7951 273.186 80.5873C273.424 80.3794 273.609 80.1329 273.739 79.847C273.869 79.5612 273.934 79.2599 273.934 78.9437C273.934 78.6277 273.882 78.3312 273.778 78.0541C271.82 73.2549 268.458 68.6068 263.689 64.1107C258.921 59.6146 253.439 55.9586 247.246 53.1429C243.244 51.3236 239.15 49.8946 234.966 48.8549C230.782 47.8152 227.027 47.2864 223.701 47.2689L216.397 63.5238ZM245.231 59.9457C247.553 59.0752 249.809 59.138 252.001 60.1342C254.192 61.1305 255.73 62.8072 256.614 65.1635C257.497 67.5196 257.44 69.7933 256.444 71.9847C255.448 74.1763 253.789 75.708 251.467 76.5785C249.146 77.4489 246.889 77.3853 244.698 76.389C242.506 75.3928 240.968 73.7169 240.085 71.3607C239.201 69.0045 239.258 66.73 240.255 64.5385C241.251 62.347 242.91 60.8161 245.231 59.9457ZM7.31897 53.4789L9.66467 54.3451C8.51869 57.4452 7.57244 60.6284 6.83948 63.8744L4.401 63.3236L1.96252 62.7738C2.74428 59.3117 3.75242 55.917 4.97424 52.6117L7.31897 53.4789ZM188.202 31.1742C192.975 30.0959 197.649 30.597 202.222 32.6761C205.557 34.1922 207.899 36.6933 209.246 40.1801C210.593 43.6666 210.508 47.0776 208.992 50.4125C207.476 53.7475 204.961 56.0538 201.448 57.3314C197.935 58.6089 194.511 58.4901 191.176 56.974C186.603 54.8948 183.153 51.7022 180.828 47.3969C178.502 43.0915 176.169 38.7691 173.831 34.4291C178.638 33.3378 183.429 32.2524 188.202 31.1742ZM198.623 40.7836C197.003 40.0473 195.277 39.7657 193.445 39.9388C191.613 40.112 189.778 40.3848 187.942 40.7572C188.277 41.3464 188.623 41.926 188.973 42.4994L191.048 43.473L190.432 44.7845C190.584 45.0113 190.737 45.2372 190.891 45.4613C191.931 46.9686 193.261 48.0911 194.88 48.8275C196.024 49.3472 197.198 49.4206 198.402 49.0482C198.897 48.8952 199.332 48.6752 199.712 48.392L200.041 47.6918L200.322 47.8236C200.584 47.5198 200.808 47.1703 200.988 46.7738C201.507 45.6306 201.529 44.4767 201.052 43.3119C200.576 42.1468 199.766 41.3034 198.623 40.7836ZM18.9205 36.7963C17.003 39.5027 15.264 42.3332 13.7164 45.267L11.5045 44.101L9.29358 42.9349C10.9431 39.8078 12.7965 36.7904 14.8405 33.9056L18.9205 36.7963ZM226.404 38.6674C228.708 38.91 230.956 39.2136 233.148 39.5775C235.34 39.9414 237.57 40.409 239.839 40.9808L238.8 34.7308L226.795 29.2728L226.404 38.6674ZM173.064 35.0355L172.003 37.2992L170.94 39.5619L161.948 35.3441L163.01 33.0804L164.072 30.8168L173.064 35.0355ZM155.08 26.599L154.018 28.8617L152.956 31.1254L143.964 26.9066L145.026 24.6429L146.088 22.3802L155.08 26.599ZM30.817 20.3265L32.4108 22.2533C29.8466 24.3742 27.4346 26.6561 25.1871 29.0795L21.5211 25.6791C23.9172 23.0954 26.4893 20.6618 29.2242 18.3998L30.817 20.3265ZM137.095 18.1615L136.033 20.4252L134.971 22.6879L125.979 18.4691L127.041 16.2064L128.103 13.9427L137.095 18.1615ZM48.1989 9.47009L49.2301 11.7474C46.183 13.1283 43.2593 14.6996 40.4703 16.4418L39.1461 14.3207L37.8209 12.2006C40.7965 10.3419 43.9163 8.6667 47.1666 7.19373L48.1989 9.47009ZM110.513 5.82849C111.894 6.38468 113.262 6.97984 114.615 7.61462L119.111 9.724L118.048 11.9877L116.987 14.2513L112.491 12.142C111.222 11.5466 109.939 10.9878 108.644 10.4662L109.579 8.14685L110.513 5.82849ZM67.4547 6.1283C66.08 6.3688 64.7086 6.64826 63.3434 6.96619C61.7146 7.34551 60.1101 7.77417 58.5328 8.25134L57.0856 3.46619C58.7665 2.95765 60.4751 2.49999 62.2096 2.09607C63.6652 1.75708 65.1275 1.45897 66.5934 1.20251L67.4547 6.1283ZM93.3112 1.03455C96.2514 1.51068 99.1677 2.15053 102.046 2.95251L100.704 7.76892C98.0046 7.01675 95.269 6.41664 92.5114 5.97009L92.9108 3.50232L93.3112 1.03455ZM75.4742 0.153687C78.4561 -0.0312063 81.4417 -0.0487863 84.4166 0.0980225L84.2936 2.59412L84.1705 5.09119C81.3804 4.95349 78.5803 4.97053 75.7838 5.14392L75.6285 2.6488L75.4742 0.153687Z" fill="#E8D7C3"/>
  </g>
  <defs>
    <filter id="filter0_i_145_602" x="0" y="0" width="283.91" height="279.716" filterUnits="userSpaceOnUse" color-interpolation-filters="sRGB">
      <feFlood flood-opacity="0" result="BackgroundImageFix"/>
      <feBlend mode="normal" in="SourceGraphic" in2="BackgroundImageFix" result="shape"/>
      <feColorMatrix in="SourceAlpha" type="matrix" values="0 0 0 0 0 0 0 0 0 0 0 0 0 0 0 0 0 0 127 0" result="hardAlpha"/>
      <feOffset dy="4"/>
      <feGaussianBlur stdDeviation="2"/>
      <feComposite in2="hardAlpha" operator="arithmetic" k2="-1" k3="1"/>
      <feColorMatrix type="matrix" values="0 0 0 0 0 0 0 0 0 0 0 0 0 0 0 0 0 0 0.25 0"/>
      <feBlend mode="normal" in2="shape" result="effect1_innerShadow_145_602"/>
    </filter>
  </defs>
</svg>