<svg width="300" height="277" viewBox="0 0 300 277" fill="none" xmlns="http://www.w3.org/2000/svg">
<path d="M255.597 223.118L272.741 241.007C280.942 249.565 279.938 263.34 270.581 270.618C265.595 274.495 259.071 275.788 252.984 274.106L182.653 254.673C171.891 251.699 166.51 250.212 161.356 248.151C157.71 246.693 154.153 245.021 150.703 243.144C145.827 240.491 141.249 237.297 132.092 230.908L65.6343 184.542C64.8414 183.989 64.4449 183.713 64.0627 183.441C44.7805 169.717 30.9906 149.6 25.1455 126.665C25.0296 126.211 24.9146 125.741 24.6846 124.802L18.75 100.569C8.42934 58.4262 34.5136 15.9689 76.7711 6.12816C93.8168 2.15862 111.702 4.04222 127.547 11.4756L217.47 53.6613" stroke="#E8D7C3" stroke-width="4" stroke-linecap="round" stroke-dasharray="10 10"/>
<g filter="url(#filter0_i_89_506)">
<path d="M240.398 40.2645C242.702 40.5071 244.95 40.8104 247.142 41.1744C249.334 41.5383 251.564 42.0062 253.834 42.578L252.794 36.3279L240.788 30.8699L240.398 40.2645ZM287.772 79.6511C285.815 74.8519 282.451 70.2043 277.683 65.7082C272.914 61.2121 267.433 57.5562 261.24 54.7406C257.238 52.9213 253.145 51.4918 248.961 50.4521C244.777 49.4124 241.021 48.8838 237.695 48.8663L230.392 65.1214C232.592 67.6163 235.459 70.0982 238.993 72.5672C242.528 75.0362 246.296 77.1804 250.298 78.9997C256.491 81.8153 262.832 83.5481 269.321 84.1981C275.809 84.8481 281.504 84.3329 286.408 82.6526C286.685 82.5487 286.943 82.3927 287.181 82.1848C287.419 81.977 287.603 81.7301 287.733 81.4442C287.863 81.1584 287.928 80.8573 287.928 80.5412C287.928 80.225 287.876 79.9283 287.772 79.6511ZM254.248 66.1359C255.245 63.9443 256.904 62.4133 259.225 61.5428C261.547 60.6723 263.804 60.7352 265.995 61.7315C268.187 62.7278 269.724 64.4041 270.608 66.7604C271.491 69.1166 271.435 71.3906 270.439 73.5822C269.442 75.7737 267.783 77.3048 265.462 78.1753C263.14 79.0458 260.883 78.9829 258.692 77.9866C256.5 76.9903 254.963 75.314 254.079 72.9577C253.196 70.6015 253.252 68.3275 254.248 66.1359ZM225.688 72.8135L218.762 79.3232L230.768 84.7811L236.16 81.4549C234.237 80.1208 232.435 78.7412 230.755 77.3161C229.075 75.8911 227.385 74.3902 225.688 72.8135ZM294.879 88.4872C287.464 91.9 279.564 93.4394 271.178 93.1055C262.793 92.7716 254.074 90.5471 245.022 86.432L235.51 92.3698C234.228 93.1667 232.851 93.6041 231.378 93.682C229.905 93.7599 228.502 93.4956 227.168 92.8891L209.159 84.7022C207.73 84.0524 206.863 82.9544 206.56 81.4081C206.257 79.8618 206.695 78.5516 207.873 77.4775L220.36 65.5627L231.471 41.1217L232.239 23.8788C232.273 22.2849 232.966 21.0765 234.318 20.2536C235.669 19.4308 237.06 19.3442 238.489 19.9939L256.498 28.1809C257.832 28.7873 258.96 29.6883 259.883 30.8838C260.805 32.0793 261.388 33.422 261.63 34.912L263.41 45.9828C272.462 50.098 279.871 55.2049 285.635 61.3036C291.4 67.4023 295.434 74.3672 297.738 82.1983C297.877 82.7787 297.929 83.3916 297.894 84.037C297.859 84.6823 297.712 85.2909 297.452 85.8626C297.192 86.4343 296.831 86.9454 296.367 87.3958C295.904 87.8462 295.408 88.21 294.879 88.4872ZM216.217 34.2732C219.552 35.7893 221.893 38.2908 223.24 41.7775C224.586 45.2643 224.502 48.6752 222.986 52.0102C221.47 55.3452 218.955 57.6515 215.443 58.9291C211.93 60.2067 208.506 60.0874 205.171 58.5713C200.597 56.4921 197.147 53.2998 194.822 48.9944C192.496 44.6889 190.164 40.3662 187.825 36.0262C192.633 34.9349 197.423 33.8501 202.196 32.7718C206.97 31.6935 211.643 32.194 216.217 34.2732ZM212.617 42.3813C210.997 41.6449 209.271 41.3633 207.439 41.5364C205.607 41.7096 203.773 41.9824 201.936 42.3548C202.863 43.9834 203.846 45.5514 204.886 47.0587C205.925 48.5661 207.255 49.6879 208.874 50.4243C210.018 50.9441 211.192 51.0178 212.396 50.6454C213.6 50.2729 214.462 49.515 214.982 48.3715C215.502 47.2281 215.523 46.0738 215.047 44.9087C214.57 43.7435 213.761 42.9011 212.617 42.3813Z" fill="#E8D7C3"/>
</g>
<defs>
<filter id="filter0_i_89_506" x="187.825" y="19.564" width="110.079" height="78.1313" filterUnits="userSpaceOnUse" color-interpolation-filters="sRGB">
<feFlood flood-opacity="0" result="BackgroundImageFix"/>
<feBlend mode="normal" in="SourceGraphic" in2="BackgroundImageFix" result="shape"/>
<feColorMatrix in="SourceAlpha" type="matrix" values="0 0 0 0 0 0 0 0 0 0 0 0 0 0 0 0 0 0 127 0" result="hardAlpha"/>
<feOffset dy="4"/>
<feGaussianBlur stdDeviation="2"/>
<feComposite in2="hardAlpha" operator="arithmetic" k2="-1" k3="1"/>
<feColorMatrix type="matrix" values="0 0 0 0 0 0 0 0 0 0 0 0 0 0 0 0 0 0 0.25 0"/>
<feBlend mode="normal" in2="shape" result="effect1_innerShadow_89_506"/>
</filter>
</defs>
</svg>
